<?xml version="1.0" encoding="UTF-8" standalone="no"?>
<!-- Created with Inkscape (http://www.inkscape.org/) -->

<svg
   width="256"
   height="256"
   viewBox="0 0 67.733333 67.733334"
   version="1.1"
   id="svg5"
   xml:space="preserve"
   inkscape:version="1.4.2 (2aeb623e1d, 2025-05-12)"
   sodipodi:docname="logo_white.svg"
   xmlns:inkscape="http://www.inkscape.org/namespaces/inkscape"
   xmlns:sodipodi="http://sodipodi.sourceforge.net/DTD/sodipodi-0.dtd"
   xmlns="http://www.w3.org/2000/svg"
   xmlns:svg="http://www.w3.org/2000/svg"><sodipodi:namedview
     id="namedview7"
     pagecolor="#ffffff"
     bordercolor="#000000"
     borderopacity="0.25"
     inkscape:showpageshadow="2"
     inkscape:pageopacity="0.0"
     inkscape:pagecheckerboard="0"
     inkscape:deskcolor="#d1d1d1"
     inkscape:document-units="mm"
     showgrid="false"
     inkscape:zoom="2.1425762"
     inkscape:cx="108.98095"
     inkscape:cy="117.38206"
     inkscape:window-width="1920"
     inkscape:window-height="1011"
     inkscape:window-x="0"
     inkscape:window-y="0"
     inkscape:window-maximized="1"
     inkscape:current-layer="layer1" /><defs
     id="defs2" /><g
     inkscape:label="Шар 1"
     inkscape:groupmode="layer"
     id="layer1"
     transform="translate(-81.077262,-124.02982)"><path
       style="fill:#f2f2f2;fill-opacity:1;stroke-width:0.107398"
       d="m 101.91938,182.47421 c -2.991144,-1.95622 -4.97546,-4.73938 -5.711557,-8.0109 -0.220399,-0.97959 -2.038402,-16.84974 -2.086267,-18.21201 -0.04287,-1.21995 0.121367,-2.6482 0.465739,-4.05033 0.382168,-1.55601 1.613112,-4.08701 2.601166,-5.34836 2.356071,-3.00776 5.488629,-4.93553 9.181339,-5.65015 1.21601,-0.23533 3.03639,-0.32297 4.16302,-0.2004 l 0.70703,0.0769 -0.23115,-0.78085 c -0.65467,-2.21162 -0.7126,-4.55141 -0.17006,-6.86884 0.2441,-1.04262 1.74834,-4.3715 2.2111,-4.89314 0.43194,-0.4869 1.21653,-0.77606 1.83303,-0.67559 0.62724,0.10223 3.13128,1.33764 4.17626,2.06036 1.21603,0.8411 1.99596,1.56334 2.8408,2.63063 1.2557,1.58636 2.15032,3.4692 2.52005,5.30379 0.10159,0.50408 0.21197,0.92977 0.2453,0.94598 0.0334,0.0162 0.27231,-0.096 0.53108,-0.24926 0.77806,-0.46097 3.00205,-1.16427 4.17409,-1.31999 2.84385,-0.37786 5.18018,0.0496 8.14505,1.49005 1.66704,0.80995 2.04013,1.10885 2.29131,1.83566 0.27625,0.7994 0.14892,1.24566 -0.96451,3.38034 -0.85022,1.62997 -1.0481,1.94044 -1.8022,2.82682 -1.37832,1.62012 -3.18235,2.91605 -5.14103,3.69307 l -0.75695,0.30029 0.49727,0.50821 c 0.2735,0.27951 0.8013,0.91866 1.17291,1.42033 2.6857,3.62567 3.57155,8.18945 2.46302,12.68914 -0.35754,1.45134 -1.56327,3.98789 -2.45076,5.15581 -0.85865,1.12997 -1.87164,2.15578 -2.91081,2.94772 -1.01394,0.77271 -14.19155,8.92291 -15.51528,9.59603 -2.87854,1.46374 -6.36071,1.73485 -9.50412,0.73996 -1.01077,-0.31991 -2.30602,-0.90392 -2.97482,-1.34133 z m 5.31757,-2.4687 c 1.65989,0.29502 3.69045,0.0325 5.05616,-0.65378 0.92458,-0.46456 14.274,-8.70861 15.02987,-9.2818 1.90447,-1.44423 3.37407,-3.78506 3.89401,-6.20251 0.9234,-4.29344 -0.87558,-8.7307 -4.5361,-11.18849 -0.49252,-0.33066 -2.87797,-1.5203 -7.545,-3.76261 l -6.82478,-3.27906 -1.04532,-0.19582 c -1.96064,-0.36731 -3.77398,-0.2373 -5.62825,0.4035 -1.8604,0.64291 -3.37451,1.66702 -4.67182,3.15987 -0.61351,0.70597 -0.78616,0.98643 -1.445631,2.34831 -0.610109,1.26004 -0.778192,1.70154 -0.906961,2.3829 -0.237401,1.25619 -0.25827,2.31854 -0.07793,3.96806 0.869188,7.95077 1.789252,15.65205 1.938702,16.22771 0.44327,1.70724 1.67505,3.44674 3.27256,4.62138 0.68649,0.50478 2.57122,1.28905 3.49046,1.45241 z m -0.43109,-6.21646 c -0.63666,-0.60665 -0.75398,-1.90846 -0.23803,-2.64114 0.54866,-0.7791 1.30698,-1.08839 2.23017,-0.90958 1.6098,0.3118 2.23149,2.25852 1.12101,3.51028 -0.7972,0.89861 -2.19351,0.91675 -3.11315,0.0404 z m -0.10549,-9.60537 c -0.63666,-0.60666 -0.75398,-1.90848 -0.23803,-2.64115 0.54865,-0.77911 1.30699,-1.0884 2.23017,-0.90959 1.6098,0.31182 2.23149,2.25852 1.12101,3.51028 -0.79718,0.89862 -2.1935,0.91677 -3.11315,0.0404 z m 7.72651,3.75776 c -0.63666,-0.60665 -0.75398,-1.90847 -0.23803,-2.64114 0.54865,-0.77911 1.30699,-1.0884 2.23016,-0.90959 1.6098,0.31182 2.23149,2.25852 1.12102,3.51029 -0.79719,0.89861 -2.19351,0.91676 -3.11315,0.0404 z m -7.83199,-13.36316 c -0.63666,-0.60665 -0.75398,-1.90846 -0.23801,-2.64114 0.54864,-0.77911 1.30696,-1.08839 2.23014,-0.90958 1.60981,0.3118 2.2315,2.25852 1.12102,3.51029 -0.79719,0.8986 -2.1935,0.91675 -3.11315,0.0404 z m 7.7265,3.75777 c -0.63665,-0.60665 -0.75398,-1.90845 -0.23802,-2.64115 0.54865,-0.7791 1.30697,-1.08838 2.23017,-0.90957 1.6098,0.3118 2.23148,2.25852 1.121,3.51028 -0.79719,0.89861 -2.19351,0.91675 -3.11315,0.0404 z m 7.72651,3.75778 c -0.63666,-0.60667 -0.75399,-1.90847 -0.23802,-2.64116 0.54863,-0.7791 1.30697,-1.08838 2.23015,-0.90957 1.6098,0.3118 2.23149,2.25852 1.12102,3.51028 -0.7972,0.89861 -2.19351,0.91675 -3.11315,0.0404 z m -2.17025,-18.47998 c 1.46465,-3.89125 -0.0437,-8.24183 -3.60684,-10.40365 l -0.67916,-0.41208 -0.27983,0.74348 c -1.50774,4.00575 0.18447,8.62591 3.87473,10.5789 l 0.41734,0.22075 z m 5.65412,3.29962 c 3.48674,0.70361 7.15303,-0.92617 9.02522,-4.01199 l 0.41208,-0.67917 -0.74348,-0.27983 c -1.04155,-0.39204 -1.89922,-0.54941 -3.02444,-0.55494 -3.00822,-0.0148 -5.82536,1.56831 -7.39519,4.15576 l -0.41207,0.67916 0.74348,0.27983 c 0.40891,0.15393 1.03641,0.33895 1.39442,0.41118 z"
       id="path2254"
       sodipodi:nodetypes="csssssccccscccscccccccscssssssscccccccccccccsccsccccsscccscccccscsccccscccccssccccscccccccccccccccccccc" /></g></svg>
